<?xml version="1.0"?><svg width="640" height="480" xmlns="http://www.w3.org/2000/svg" xmlns:xlink="http://www.w3.org/1999/xlink">
 <!-- Created with SVG-edit - http://svg-edit.googlecode.com/ -->
 <g>
  <title>Layer 1</title>
  <defs>
   <symbol id="svg_1" preserveAspectRatio="xMidYMid meet" viewBox="0 0 600.000000 549.000000" height="549.000000pt" width="600.000000pt">
    <metadata>Created by potrace 1.10, written by Peter Selinger 2001-2011</metadata>
    <g fill="#000000" transform="translate(0.000000,549.000000) scale(0.100000,-0.100000)">
     <path d="m1,3648c1,-1014 3,-1832 5,-1818c2,14 9,70 15,125c6,55 14,109 18,120c5,11 15,51 24,88c20,82 55,172 114,294c146,303 383,547 668,688c205,102 362,137 609,137c236,-1 394,-37 581,-133c101,-51 249,-153 338,-231c26,-23 50,-38 54,-34c8,7 12,408 16,1699l3,907l-1223,0l-1223,0l1,-1842z"/>
     <path d="m3106,5483l61,-4l6,-547c4,-301 7,-821 7,-1157l0,-610l78,80c43,44 453,464 911,933l833,852l494,0c272,0 494,-3 494,-7c0,-4 -490,-497 -1088,-1097c-598,-600 -1097,-1104 -1109,-1121l-20,-30l276,-331c261,-313 627,-754 1475,-1774c476,-573 466,-560 466,-569c0,-12 -259,-21 -634,-21l-348,0l-22,27c-11,15 -223,277 -471,583c-494,611 -579,715 -805,995c-84,105 -228,281 -318,393l-165,203l-23,-22l-24,-22l-2,-1076l-3,-1076l-361,-3l-361,-2l-7,61c-3,34 -6,104 -6,155c0,52 -2,94 -5,94c-3,0 -50,-37 -105,-83c-191,-158 -446,-273 -665,-300c-16,-2 952,-5 2153,-6l2182,-1l0,2745l0,2745l-1477,-2c-813,-1 -1451,-3 -1417,-5z"/>
     <path d="m1450,2624c-57,-11 -160,-49 -230,-85c-157,-81 -285,-219 -375,-405c-82,-167 -98,-245 -98,-489c-1,-173 2,-212 21,-288c46,-185 122,-331 240,-458c89,-95 187,-162 307,-209l90,-35l205,0l205,0l105,43c128,52 220,113 299,197c78,83 112,135 166,247c58,120 82,218 97,390c20,238 -10,415 -102,604c-113,233 -273,379 -503,461c-64,23 -90,26 -237,29c-91,1 -176,0 -190,-2z"/>
     <path d="m1,768l-1,-768l663,2c364,0 646,3 627,5c-334,35 -657,208 -884,473c-146,170 -237,333 -309,555c-54,166 -76,264 -86,400c-5,60 -9,-206 -10,-667z"/>
    </g>
   </symbol>
  </defs>
  <use stroke-linecap="round" fill="#ff0000" x="933.750056" y="547.500033" transform="matrix(0.266667 0 0 0.266667 0 0)" xlink:href="#svg_1" id="svg_2"/>
 </g>
</svg>