<?xml version="1.0" standalone="no"?>
<!DOCTYPE svg PUBLIC "-//W3C//DTD SVG 20010904//EN"
 "http://www.w3.org/TR/2001/REC-SVG-20010904/DTD/svg10.dtd">
<svg version="1.0" xmlns="http://www.w3.org/2000/svg"
 width="3513.000000pt" height="3513.000000pt" viewBox="0 0 3513.000000 3513.000000"
 preserveAspectRatio="xMidYMid meet">
<metadata>
Created by potrace 1.11, written by Peter Selinger 2001-2013
</metadata>
<g transform="translate(0.000000,3513.000000) scale(0.100000,-0.100000)"
fill="#000000" stroke="none">
<path d="M16627 22443 c-265 -30 -506 -148 -711 -348 -152 -147 -275 -350
-332 -545 -54 -186 -53 -121 -51 -2040 l2 -1775 32 -116 c17 -63 45 -147 62
-186 17 -39 31 -74 31 -78 0 -3 5 -11 10 -18 6 -7 27 -39 46 -72 50 -84 108
-157 189 -239 182 -183 387 -293 655 -353 19 -4 933 -8 2030 -9 2193 -3 2038
-7 2225 56 339 112 626 391 760 739 39 102 52 149 74 286 12 74 13 3535 1
3615 -20 133 -31 175 -72 289 -108 298 -339 543 -651 691 -111 53 -254 95
-357 106 -121 13 -3830 10 -3943 -3z m3999 -642 c235 -65 428 -257 475 -473
19 -92 19 -3476 0 -3558 -63 -259 -262 -472 -511 -547 -64 -19 -111 -20 -1975
-21 -1850 -1 -1912 0 -1983 18 -123 32 -224 92 -327 195 -130 130 -202 263
-222 410 -4 28 -7 815 -7 1750 0 1602 1 1703 18 1760 70 234 270 415 522 473
70 16 216 17 2002 16 l1927 -1 81 -22z"/>
<path d="M19943 21082 l-52 -3 -39 -72 c-22 -40 -99 -180 -172 -312 -73 -132
-146 -265 -163 -295 -16 -30 -62 -113 -102 -185 -99 -178 -122 -220 -163 -295
-19 -36 -38 -69 -42 -75 -4 -5 -31 -55 -60 -110 -29 -55 -57 -106 -63 -113
-13 -17 -18 -8 213 -412 110 -193 200 -354 200 -357 0 -4 6 -14 14 -22 7 -9
27 -41 43 -71 17 -30 62 -111 102 -179 39 -68 71 -125 71 -127 0 -2 13 -25 29
-51 16 -27 42 -71 58 -98 15 -28 53 -94 83 -148 l55 -97 50 -1 c217 -3 707 0
712 4 5 5 -79 153 -167 297 -16 25 -37 61 -48 80 -11 19 -70 121 -132 225 -63
105 -120 201 -127 215 -8 14 -22 39 -32 55 -22 36 -220 369 -306 515 -34 58
-68 115 -76 128 -10 16 -11 26 -3 40 6 9 22 37 36 62 19 35 296 516 392 683
29 51 227 398 249 437 10 19 23 40 27 45 4 6 24 42 45 80 21 39 43 77 50 85
14 17 26 51 22 64 -2 8 -584 15 -704 8z"/>
<path d="M16700 19536 l0 -1544 678 2 c588 2 688 5 758 20 264 54 444 166 559
345 67 107 107 218 122 348 9 76 9 1651 0 1726 -36 302 -239 521 -557 600
-163 41 -236 44 -922 45 l-638 1 0 -1543z m1190 990 c63 -8 163 -52 201 -89
41 -40 70 -94 90 -166 16 -60 17 -122 16 -721 -2 -716 -1 -694 -62 -774 -26
-34 -99 -78 -150 -91 -16 -4 -39 -9 -50 -12 -11 -3 -144 -7 -296 -9 l-275 -4
3 928 c2 510 5 932 7 937 4 12 423 12 516 1z"/>
<path d="M13525 15138 c1 -12 7 -23 14 -24 6 -1 7 0 2 2 -6 3 -8 11 -5 19 3 7
1 15 -4 19 -5 3 -8 -5 -7 -16z"/>
<path d="M20195 13659 c-4 -6 -5 -12 -2 -15 2 -3 7 2 10 11 7 17 1 20 -8 4z"/>
</g>
</svg>
